<svg xmlns="http://www.w3.org/2000/svg" viewBox="0 0 60 36">
<rect width="60" height="36" fill="#b22234"/>
<g fill="#fff">
  <rect y="2.769" width="60" height="2.769"/>
  <rect y="8.308" width="60" height="2.769"/>
  <rect y="13.846" width="60" height="2.769"/>
  <rect y="19.385" width="60" height="2.769"/>
  <rect y="24.923" width="60" height="2.769"/>
  <rect y="30.462" width="60" height="2.769"/>
</g>
<rect width="24" height="19.385" fill="#3c3b6e"/>
<g fill="#fff">
  <circle cx="3" cy="3" r="0.8"/><circle cx="7" cy="3" r="0.8"/><circle cx="11" cy="3" r="0.8"/><circle cx="15" cy="3" r="0.8"/><circle cx="19" cy="3" r="0.8"/>
  <circle cx="5" cy="6" r="0.8"/><circle cx="9" cy="6" r="0.8"/><circle cx="13" cy="6" r="0.8"/><circle cx="17" cy="6" r="0.8"/><circle cx="21" cy="6" r="0.8"/>
  <circle cx="3" cy="9" r="0.8"/><circle cx="7" cy="9" r="0.8"/><circle cx="11" cy="9" r="0.8"/><circle cx="15" cy="9" r="0.8"/><circle cx="19" cy="9" r="0.8"/>
  <circle cx="5" cy="12" r="0.8"/><circle cx="9" cy="12" r="0.8"/><circle cx="13" cy="12" r="0.8"/><circle cx="17" cy="12" r="0.8"/><circle cx="21" cy="12" r="0.8"/>
  <circle cx="3" cy="15" r="0.8"/><circle cx="7" cy="15" r="0.8"/><circle cx="11" cy="15" r="0.8"/><circle cx="15" cy="15" r="0.8"/><circle cx="19" cy="15" r="0.8"/>
</g>
</svg>